<svg xmlns="http://www.w3.org/2000/svg" xmlns:svg="http://www.w3.org/2000/svg" id="svg2408" width="22" height="22" version="1.1" viewBox="0 0 22 22" xml:space="preserve"><metadata id="metadata106"/><filter id="filter3794" width="1.384" height="1.384" x="-.192" y="-.192" color-interpolation-filters="sRGB"><feGaussianBlur id="feGaussianBlur3796" stdDeviation="5.28"/></filter><filter id="filter3218" color-interpolation-filters="sRGB"><feGaussianBlur id="feGaussianBlur3220" stdDeviation="1.71"/></filter><path id="rect3200-6" fill="#fff" fill-opacity="1" stroke="none" d="M 3.8,3 C 2.8028,3 2,3.8028 2,4.8 L 2,19.2 C 2,20.1972 2.8028,21 3.8,21 l 14.4,0 C 19.1972,21 20,20.1972 20,19.2 L 20,4.8 C 20,3.8028 19.1972,3 18.2,3 z m 6.953906,1.9749688 c 0.0093,-0.00103 0.01879,-0.00103 0.02812,0 l 2.763282,0 c 0.05987,-1.839e-4 0.116365,0.046898 0.126562,0.1054687 L 15.95,17.927343 c 0.01196,0.07254 -0.05252,0.147776 -0.126562,0.147657 l -2.489063,0 c -0.05987,1.84e-4 -0.116366,-0.0469 -0.126562,-0.105469 l -0.492188,-2.882812 -4.3171875,0 -1.35,2.917969 c -0.020817,0.04138 -0.065916,0.06957 -0.1125,0.07032 l -2.109375,0 c -0.085527,-0.0017 -0.149994,-0.106475 -0.1125,-0.182813 L 10.669531,5.0452813 c 0.01575,-0.034289 0.04763,-0.060858 0.08438,-0.070312 z m 0.829687,2.7140624 -2.299218,5.4219068 3.171093,0 z" opacity=".3"/><path id="rect3200" fill="#3c3c3c" fill-opacity="1" stroke="none" d="M 3.8,2 C 2.8028,2 2,2.8028 2,3.8 L 2,18.2 C 2,19.1972 2.8028,20 3.8,20 l 14.4,0 C 19.1972,20 20,19.1972 20,18.2 L 20,3.8 C 20,2.8028 19.1972,2 18.2,2 z m 6.953906,1.9749688 c 0.0093,-0.00103 0.01879,-0.00103 0.02812,0 l 2.763282,0 c 0.05987,-1.838e-4 0.116365,0.046899 0.126562,0.1054687 L 15.95,16.927344 c 0.01196,0.07254 -0.05252,0.147775 -0.126562,0.147656 l -2.489063,0 c -0.05987,1.84e-4 -0.116366,-0.0469 -0.126562,-0.105468 l -0.492188,-2.882813 -4.3171875,0 -1.35,2.917968 c -0.020817,0.04138 -0.065916,0.06957 -0.1125,0.07032 l -2.109375,0 c -0.085527,-0.0017 -0.149994,-0.106474 -0.1125,-0.182812 L 10.669531,4.0452858 c 0.01575,-0.034289 0.04763,-0.060858 0.08438,-0.070317 z m 0.829687,2.7140624 -2.299218,5.4219058 3.171093,0 z"/><g id="layer2" display="none" transform="translate(0,-74)"><g id="rect3745" display="inline" filter="url(#filter3218)" opacity=".9"><linearGradient id="SVGID_1_" x1="37.868" x2="37.868" y1="-22.713" y2="62.786" gradientTransform="matrix(1.0059,0,0,-0.9942,9.9104,69.4184)" gradientUnits="userSpaceOnUse"><stop id="stop10" offset="0" stop-color="#000" stop-opacity="1"/><stop id="stop12" offset="1" stop-color="#000" stop-opacity=".588"/></linearGradient><path id="path14" fill="url(#SVGID_1_)" d="m 12,7 h 72 c 3.866,0 7,3.134 7,7 v 71 c 0,3.866 -3.134,7 -7,7 H 12 C 8.134,92 5,88.866 5,85 V 14 C 5,10.134 8.134,7 12,7 z"/></g></g></svg>