<svg xmlns="http://www.w3.org/2000/svg" xmlns:svg="http://www.w3.org/2000/svg" id="svg2408" width="96" height="96" x="0" y="0" enable-background="new 0 0 96 96" version="1.1" viewBox="0 0 96 96" xml:space="preserve"><metadata id="metadata106"/><defs id="defs104"><filter id="filter3237" width="1.5" height="1.5" x="-.25" y="-.25"><feGaussianBlur id="feGaussianBlur3239" in="SourceAlpha" result="blur" stdDeviation="1"/><feColorMatrix id="feColorMatrix3241" result="bluralpha" type="matrix" values="1 0 0 0 0 0 1 0 0 0 0 0 1 0 0 0 0 0 0.5 0"/><feOffset id="feOffset3243" dx="3" dy="3" in="bluralpha" result="offsetBlur"/><feMerge id="feMerge3245"><feMergeNode id="feMergeNode3247" in="offsetBlur"/><feMergeNode id="feMergeNode3249" in="SourceGraphic"/></feMerge></filter></defs><filter id="filter3794" width="1.384" height="1.384" x="-.192" y="-.192" color-interpolation-filters="sRGB"><feGaussianBlur id="feGaussianBlur3796" stdDeviation="5.28"/></filter><filter id="filter3218" color-interpolation-filters="sRGB"><feGaussianBlur id="feGaussianBlur3220" stdDeviation="1.71"/></filter><g id="layer2" display="none"><g id="rect3745" display="inline" filter="url(#filter3218)" opacity=".9"><linearGradient id="SVGID_1_" x1="37.868" x2="37.868" y1="-22.713" y2="62.786" gradientTransform="matrix(1.0059 0 0 -0.9942 9.9104 69.4184)" gradientUnits="userSpaceOnUse"><stop id="stop10" offset="0" stop-color="#000"/><stop id="stop12" offset="1" stop-color="#000" stop-opacity=".588"/></linearGradient><path id="path14" fill="url(#SVGID_1_)" d="M12,7h72c3.866,0,7,3.134,7,7v71c0,3.866-3.134,7-7,7H12c-3.866,0-7-3.134-7-7V14 C5,10.134,8.134,7,12,7z"/></g></g><g id="g92"><g id="g96" fill="#fff" filter="url(#filter3237)"><g id="g98" fill="#fff"><path id="path100" fill="#fff" stroke="#BABABD" stroke-miterlimit="10" stroke-width=".5" d="M69.063,74.334H58.117l-2.245-13.232H36.023 l-6.095,13.232h-9.263L46.89,19.601h12.149L69.063,74.334z M54.949,53.483l-4.29-24.299L39.392,53.483H54.949z"/></g></g></g><path id="path3002" fill="red" d="m 21.459407,73.821222 c 0.0033,-0.127331 5.767392,-12.246945 12.809055,-26.932476 l 12.803024,-26.700965 5.828561,-0.0837 5.828558,-0.0837 0.541486,3.01618 c 0.29782,1.658899 2.513361,13.781453 4.923424,26.93901 l 4.381934,23.92283 -4.939864,0.08508 c -2.980862,0.05134 -5.013815,-0.03458 -5.126345,-0.21666 -0.102565,-0.165954 -0.653324,-3.156008 -1.223913,-6.644562 l -1.03743,-6.342825 -10.259112,0 -10.259111,0 -3.048117,6.631798 -3.048117,6.6318 -4.090032,0.0049 c -2.249518,0.0027 -4.087318,-0.09932 -4.084001,-0.226653 z M 55.314842,53.13955 c -0.09102,-0.466881 -1.114288,-6.231104 -2.273928,-12.809384 -1.15964,-6.578281 -2.18975,-11.960917 -2.289131,-11.961415 -0.22842,-0.0011 -11.703552,24.760461 -11.703552,25.2545 0,0.271964 2.097144,0.365173 8.21605,0.365173 l 8.216048,0 -0.165487,-0.848874 0,0 z"/></svg>