<svg xmlns="http://www.w3.org/2000/svg" xmlns:svg="http://www.w3.org/2000/svg" id="svg2408" width="96" height="96" x="0" y="0" enable-background="new 0 0 96 96" version="1.1" viewBox="0 0 96 96" xml:space="preserve"><metadata id="metadata106"/><defs id="defs104"><filter id="filter3237" width="1.5" height="1.5" x="-.25" y="-.25"><feGaussianBlur id="feGaussianBlur3239" in="SourceAlpha" result="blur" stdDeviation="1"/><feColorMatrix id="feColorMatrix3241" result="bluralpha" type="matrix" values="1 0 0 0 0 0 1 0 0 0 0 0 1 0 0 0 0 0 0.5 0"/><feOffset id="feOffset3243" dx="3" dy="3" in="bluralpha" result="offsetBlur"/><feMerge id="feMerge3245"><feMergeNode id="feMergeNode3247" in="offsetBlur"/><feMergeNode id="feMergeNode3249" in="SourceGraphic"/></feMerge></filter></defs><filter id="filter3794" width="1.384" height="1.384" x="-.192" y="-.192" color-interpolation-filters="sRGB"><feGaussianBlur id="feGaussianBlur3796" stdDeviation="5.28"/></filter><filter id="filter3218" color-interpolation-filters="sRGB"><feGaussianBlur id="feGaussianBlur3220" stdDeviation="1.71"/></filter><g id="layer2" display="none"><g id="rect3745" display="inline" filter="url(#filter3218)" opacity=".9"><linearGradient id="SVGID_1_" x1="37.868" x2="37.868" y1="-22.713" y2="62.786" gradientTransform="matrix(1.0059 0 0 -0.9942 9.9104 69.4184)" gradientUnits="userSpaceOnUse"><stop id="stop10" offset="0" stop-color="#000"/><stop id="stop12" offset="1" stop-color="#000" stop-opacity=".588"/></linearGradient><path id="path14" fill="url(#SVGID_1_)" d="M12,7h72c3.866,0,7,3.134,7,7v71c0,3.866-3.134,7-7,7H12c-3.866,0-7-3.134-7-7V14 C5,10.134,8.134,7,12,7z"/></g></g><g id="g92"><g id="g96" fill="#fff" filter="url(#filter3237)"><g id="g98" fill="#fff"><path id="path100" fill="#fff" stroke="#BABABD" stroke-miterlimit="10" stroke-width=".5" d="M69.063,74.334H58.117l-2.245-13.232H36.023 l-6.095,13.232h-9.263L46.89,19.601h12.149L69.063,74.334z M54.949,53.483l-4.29-24.299L39.392,53.483H54.949z"/></g></g></g><path id="path3004" fill="#1a1a1a" d="m 21.568695,73.518356 c 0.09975,-0.259953 5.900128,-12.414294 12.889722,-27.009648 l 12.708353,-26.537004 5.766605,0 5.766603,0 1.146685,6.250804 c 0.630676,3.437942 2.852193,15.557556 4.936705,26.932476 l 3.790022,20.681672 -4.938833,0.08508 c -2.980192,0.05134 -5.012787,-0.03459 -5.125317,-0.216661 -0.102565,-0.165953 -0.653324,-3.156007 -1.223913,-6.644561 l -1.03743,-6.342825 -10.254456,0 -10.254455,0 -3.050914,6.636656 -3.050913,6.636656 -4.124917,0 c -3.577086,0 -4.100829,-0.06277 -3.943547,-0.472641 z M 55.316123,53.232154 C 55.228584,52.850161 54.206453,47.08582 53.04472,40.422508 51.882984,33.759197 50.858304,28.307106 50.767649,28.306752 50.633414,28.306229 44.38747,41.594414 39.777238,51.688746 l -1.022102,2.237942 8.360076,0 8.360077,0 -0.159166,-0.694534 0,0 z"/></svg>